<?xml version="1.0" standalone="no"?>
<!DOCTYPE svg PUBLIC "-//W3C//DTD SVG 20010904//EN"
 "http://www.w3.org/TR/2001/REC-SVG-20010904/DTD/svg10.dtd">
<svg version="1.0" xmlns="http://www.w3.org/2000/svg"
 width="349.000000pt" height="345.000000pt" viewBox="0 0 349.000000 345.000000"
 preserveAspectRatio="xMidYMid meet">
<metadata>
Created by potrace 1.15, written by Peter Selinger 2001-2017
</metadata>
<g transform="translate(0.000000,345.000000) scale(0.100000,-0.100000)"
fill="#000000" stroke="none">
<path d="M2000 2363 c-34 -12 -59 -47 -66 -89 l-6 -44 -45 0 c-26 0 -82 14
-138 35 l-95 36 -109 -25 c-174 -39 -237 -83 -211 -146 7 -16 28 -39 46 -51
46 -28 79 -19 101 25 9 19 25 37 37 40 43 12 172 6 191 -8 18 -13 18 -16 -20
-62 -22 -27 -76 -87 -121 -134 -94 -99 -101 -109 -110 -179 -7 -55 -41 -118
-123 -231 -26 -36 -63 -95 -84 -131 -43 -79 -72 -108 -118 -123 -33 -11 -34
-12 -33 -66 1 -60 31 -140 66 -177 26 -27 83 -32 92 -7 3 9 6 32 6 52 1 20 7
65 14 100 15 69 -4 46 264 329 140 148 144 151 173 141 16 -5 29 -13 29 -17 0
-11 -122 -97 -161 -114 -56 -23 -82 -63 -75 -115 11 -85 65 -172 106 -172 31
0 52 37 61 107 4 37 8 73 9 79 0 12 176 101 245 125 56 19 75 37 75 73 0 39
-24 75 -102 154 l-63 63 90 84 c50 46 93 84 97 85 4 0 39 -21 78 -46 91 -58
122 -64 186 -31 69 35 150 101 169 137 17 34 20 93 5 121 -30 55 -160 -21
-160 -93 0 -12 -12 -19 -44 -23 -43 -7 -69 4 -144 61 -2 1 10 26 27 56 17 30
31 63 31 74 0 26 -55 79 -102 98 -40 17 -44 18 -68 9z m53 -57 c18 -7 40 -23
51 -34 18 -21 18 -22 -8 -66 -14 -25 -31 -48 -36 -51 -23 -14 -7 -44 46 -83
77 -57 115 -67 184 -50 53 13 55 14 61 52 4 24 15 46 30 57 33 26 39 24 39
-13 0 -25 -10 -41 -47 -76 -51 -47 -130 -92 -161 -92 -10 0 -54 25 -98 55 -43
30 -84 55 -90 55 -13 0 -254 -217 -254 -229 0 -5 41 -49 90 -98 53 -54 90 -98
90 -110 0 -15 -13 -25 -47 -38 -73 -27 -250 -114 -263 -129 -6 -8 -13 -45 -17
-82 -8 -96 -16 -106 -41 -53 -11 24 -24 61 -27 81 -7 35 -5 39 25 55 56 31
133 84 187 130 65 55 61 70 -29 101 -35 12 -66 22 -69 22 -11 0 -413 -430
-427 -456 -7 -13 -18 -63 -25 -110 -10 -65 -15 -83 -24 -73 -12 17 -53 125
-53 142 0 7 19 20 41 31 39 18 69 54 130 163 13 23 59 93 102 156 68 100 79
123 91 187 14 70 17 76 83 144 112 115 203 223 203 240 0 9 -22 27 -52 42 -49
25 -59 26 -159 22 -116 -5 -133 -12 -143 -58 -3 -17 -10 -30 -16 -30 -17 0
-51 40 -44 51 11 19 86 47 178 68 l88 19 93 -34 c81 -30 104 -34 167 -32 l73
3 6 59 c4 32 13 62 20 67 18 11 14 11 52 -5z"/>
</g>
</svg>
