<?xml version="1.0" standalone="no"?>
<!DOCTYPE svg PUBLIC "-//W3C//DTD SVG 20010904//EN"
 "http://www.w3.org/TR/2001/REC-SVG-20010904/DTD/svg10.dtd">
<svg version="1.0" xmlns="http://www.w3.org/2000/svg"
 width="311.000000pt" height="311.000000pt" viewBox="0 0 311.000000 311.000000"
 preserveAspectRatio="xMidYMid meet">
<metadata>
Created by potrace 1.15, written by Peter Selinger 2001-2017
</metadata>
<g transform="translate(0.000000,311.000000) scale(0.100000,-0.100000)"
fill="#000000" stroke="none">
<path d="M1231 2894 c-17 -22 -21 -41 -21 -100 l0 -74 -57 0 c-32 0 -75 -5
-95 -10 -31 -9 -39 -17 -49 -49 -6 -21 -10 -74 -8 -118 6 -113 16 -123 126
-123 l83 0 0 -85 c0 -120 6 -125 149 -125 106 0 110 1 130 26 17 22 21 41 21
100 l0 74 58 0 c31 0 74 5 94 10 31 9 39 17 49 49 6 21 10 74 8 118 -6 113
-16 123 -126 123 l-83 0 0 83 c0 74 -3 86 -23 105 -21 20 -34 22 -129 22 -103
0 -107 -1 -127 -26z m199 -136 c0 -46 4 -88 8 -94 15 -23 53 -34 121 -34 l71
0 0 -65 0 -65 -74 0 c-59 0 -78 -4 -100 -21 -24 -19 -26 -26 -26 -105 l0 -84
-70 0 -70 0 0 83 c0 45 -4 87 -8 93 -15 23 -53 34 -121 34 l-71 0 0 65 0 65
74 0 c59 0 78 4 100 21 24 19 26 26 26 105 l0 84 70 0 70 0 0 -82z"/>
<path d="M1960 2421 c-118 -38 -187 -139 -178 -260 8 -113 92 -202 207 -220
110 -17 204 30 254 128 64 127 14 277 -112 337 -40 20 -133 28 -171 15z"/>
<path d="M1061 2013 c-17 -15 -67 -88 -111 -162 -82 -136 -94 -176 -70 -222
24 -45 109 -63 155 -33 13 9 50 57 81 107 87 140 61 127 256 127 92 0 168 -3
168 -7 0 -3 -60 -103 -134 -222 -73 -119 -141 -230 -150 -248 -25 -49 -21
-134 9 -192 36 -71 148 -168 294 -252 70 -40 134 -79 144 -87 15 -14 17 -42
17 -322 0 -293 1 -309 20 -333 39 -49 138 -60 196 -22 51 33 54 56 54 430 0
288 -3 351 -15 375 -9 17 -42 45 -83 69 -130 76 -247 153 -245 161 1 4 47 77
103 161 l100 154 0 -127 c0 -181 -23 -168 291 -168 272 0 294 4 318 57 14 30
14 79 1 104 -23 41 -60 49 -234 49 l-164 0 -4 163 c-3 131 -6 168 -21 195 -12
22 -64 63 -165 130 -225 151 -173 137 -499 140 l-281 3 -31 -28z"/>
<path d="M1130 1124 c-12 -27 -37 -87 -57 -134 -19 -47 -38 -89 -42 -93 -5 -4
-93 26 -196 68 -208 85 -233 88 -286 36 -52 -53 -63 -156 -19 -196 25 -22 584
-255 614 -255 38 0 62 38 135 214 l71 169 -68 62 c-40 37 -81 87 -99 121 l-31
57 -22 -49z"/>
</g>
</svg>
